HIERARCHY
ROOT joint_Root
{
	OFFSET 0.0 0.0 0.0
	CHANNELS 6 Xposition Yposition Zposition Zrotation Xrotation Yrotation 
	JOINT Hips
	{
		OFFSET -17.1583 93.1646 452.98
		CHANNELS 6 Xposition Yposition Zposition Zrotation Xrotation Yrotation 
		JOINT Spine
		{
			OFFSET 15.7357 0.0 0.0
			CHANNELS 6 Xposition Yposition Zposition Zrotation Xrotation Yrotation 
			JOINT Chest
			{
				OFFSET 8.98455 -0.406207 0.0
				CHANNELS 6 Xposition Yposition Zposition Zrotation Xrotation Yrotation 
				JOINT Neck
				{
					OFFSET 16.3773 0.0 0.0
					CHANNELS 6 Xposition Yposition Zposition Zrotation Xrotation Yrotation 
					JOINT Head
					{
						OFFSET 6.45672 0.0 0.0
						CHANNELS 6 Xposition Yposition Zposition Zrotation Xrotation Yrotation 
						End Site
						{
							OFFSET 0.0 0.0 0.0
						}
					}
				}
				JOINT Shoulder_L
				{
					OFFSET 12.9942 -0.242716 4.98039
					CHANNELS 6 Xposition Yposition Zposition Zrotation Xrotation Yrotation 
					JOINT UpperArm_L
					{
						OFFSET 5.34809 0.0 0.0
						CHANNELS 6 Xposition Yposition Zposition Zrotation Xrotation Yrotation 
						JOINT LowerArm_L
						{
							OFFSET 24.3286 1.87007e-05 0.0
							CHANNELS 6 Xposition Yposition Zposition Zrotation Xrotation Yrotation 
							JOINT Hand_L
							{
								OFFSET 22.2916 0.0 0.0
								CHANNELS 6 Xposition Yposition Zposition Zrotation Xrotation Yrotation 
								End Site
								{
									OFFSET 0.0 0.0 0.0
								}
							}
						}
					}
				}
				JOINT Shoulder_R
				{
					OFFSET 12.9945 -0.242716 -4.98039
					CHANNELS 6 Xposition Yposition Zposition Zrotation Xrotation Yrotation 
					JOINT UpperArm_R
					{
						OFFSET -5.34813 0.0 0.0
						CHANNELS 6 Xposition Yposition Zposition Zrotation Xrotation Yrotation 
						JOINT LowerArm_R
						{
							OFFSET -24.3289 0.000322201 0.0
							CHANNELS 6 Xposition Yposition Zposition Zrotation Xrotation Yrotation 
							JOINT Hand_R
							{
								OFFSET -22.2915 -0.000108084 0.0
								CHANNELS 6 Xposition Yposition Zposition Zrotation Xrotation Yrotation 
								End Site
								{
									OFFSET 0.0 0.0 0.0
								}
							}
						}
					}
				}
			}
		}
		JOINT UpperLeg_L
		{
			OFFSET -2.19248 -6.46944 0.0
			CHANNELS 6 Xposition Yposition Zposition Zrotation Xrotation Yrotation 
			JOINT LowerLeg_L
			{
				OFFSET 39.0811 0.0 -1.23785e-05
				CHANNELS 6 Xposition Yposition Zposition Zrotation Xrotation Yrotation 
				JOINT Foot_L
				{
					OFFSET 40.9854 0.0 -1.26872e-05
					CHANNELS 6 Xposition Yposition Zposition Zrotation Xrotation Yrotation 
					JOINT Toes_L
					{
						OFFSET 11.7543 0.0 0.0
						CHANNELS 6 Xposition Yposition Zposition Zrotation Xrotation Yrotation 
						End Site
						{
							OFFSET 0.0 0.0 0.0
						}
					}
				}
			}
		}
		JOINT UpperLeg_R
		{
			OFFSET -2.19251 6.46944 0.0
			CHANNELS 6 Xposition Yposition Zposition Zrotation Xrotation Yrotation 
			JOINT LowerLeg_R
			{
				OFFSET -39.0811 -0.00228153 -0.0401928
				CHANNELS 6 Xposition Yposition Zposition Zrotation Xrotation Yrotation 
				JOINT Foot_R
				{
					OFFSET -40.9854 0.0 0.0
					CHANNELS 6 Xposition Yposition Zposition Zrotation Xrotation Yrotation 
					JOINT Toes_R
					{
						OFFSET -11.7543 0.0 0.0
						CHANNELS 6 Xposition Yposition Zposition Zrotation Xrotation Yrotation 
						End Site
						{
							OFFSET 0.0 0.0 0.0
						}
					}
				}
			}
		}
	}
}
MOTION
Frames:	4
Frame Time:	0.0333333
0.000000 0.000000 0.000000 0.000000 0.000000 -0.000000 1.250550 92.973300 -448.992000 94.081400 -1.644730 -25.089900 15.735700 0.000005 -0.000001 120.470000 85.214100 -120.814000 8.984550 -0.406207 -0.000000 0.502122 4.873970 -0.710007 16.377300 -0.000001 -0.000001 -12.027500 -0.256391 1.610400 6.456720 -0.000001 -0.000000 -3.973800 -0.374332 -3.695330 12.994200 -0.242716 4.980390 -90.457600 1.415770 -72.088800 5.348090 -0.000007 -0.000001 -38.966400 -19.848100 32.028200 24.328600 0.000019 0.000005 1.682000 22.568000 -4.375470 22.291600 -0.000001 0.000005 37.470800 4.425130 17.779900 12.994500 -0.242716 -4.980390 90.568100 -2.502530 -77.204400 -5.348130 -0.000001 -0.000004 -63.391600 0.352725 -13.198100 -24.328900 0.000322 -0.000009 -17.408700 -3.477640 -79.049500 -22.291500 -0.000108 -0.000004 19.958000 5.648150 -14.841000 -2.192480 -6.469440 -0.000000 176.201000 2.507930 -55.383700 39.081100 -0.000007 -0.000012 0.065541 -0.025656 68.617600 40.985400 -0.000006 -0.000013 -2.369790 3.181150 -62.682200 11.754300 -0.000000 0.000003 0.001744 0.037992 -15.035600 -2.192510 6.469440 -0.000001 176.881000 10.825900 171.568000 -39.081100 -0.002282 -0.040193 0.029164 -0.083836 17.129000 -40.985400 0.000008 0.000006 -4.362260 1.812030 -53.247000 -11.754300 -0.000006 -0.000006 -0.063186 -0.341991 -30.708400
0.000000 0.000000 0.000000 0.000000 0.000000 -0.000000 1.201480 94.969500 -441.855000 94.175900 -1.167170 -25.953100 15.735700 0.000005 -0.000001 126.495000 85.634900 -127.333000 8.984550 -0.406207 -0.000000 -0.708069 5.253200 -1.643700 16.377300 -0.000001 -0.000001 -11.502000 -0.800879 1.723650 6.456720 -0.000001 -0.000000 -3.516980 -1.593860 -2.243850 12.994200 -0.242716 4.980390 -90.394000 1.225100 -72.172300 5.348090 -0.000007 -0.000001 -37.910100 -20.461400 31.008700 24.328600 0.000019 0.000005 1.208950 26.521800 -2.706030 22.291600 -0.000001 0.000005 52.737200 3.797240 27.005800 12.994500 -0.242716 -4.980390 90.563800 -2.569780 -77.621000 -5.348130 -0.000001 -0.000004 -65.852100 -0.299987 -11.117700 -24.328900 0.000322 -0.000009 -13.875100 -2.944750 -78.249100 -22.291500 -0.000108 -0.000004 21.275900 5.636570 -13.846000 -2.192480 -6.469440 -0.000000 176.838000 2.975660 -54.303800 39.081100 -0.000007 -0.000012 0.047781 -0.034520 54.150600 40.985400 -0.000006 -0.000013 -2.820960 6.765270 -65.984600 11.754300 -0.000000 0.000003 0.002056 0.048906 -14.593000 -2.192510 6.469440 -0.000001 177.334000 12.200800 175.995000 -39.081100 -0.002282 -0.040193 0.020553 -0.104813 9.326450 -40.985400 0.000008 0.000006 0.509824 1.301750 -35.993100 -11.754300 -0.000006 -0.000006 -0.045592 -0.281676 -28.161100
0.000000 0.000000 0.000000 0.000000 0.000000 -0.000000 0.790152 95.733900 -434.280000 92.292600 -0.262829 -24.572400 15.735700 0.000005 -0.000001 126.916000 85.425500 -127.430000 8.984550 -0.406207 -0.000000 -0.424525 5.530840 -1.008300 16.377300 -0.000001 -0.000001 -11.509400 -1.085880 2.079270 6.456720 -0.000001 -0.000000 -2.931480 -2.118490 -1.994300 12.994200 -0.242716 4.980390 -90.629200 1.933540 -71.969600 5.348090 -0.000007 -0.000001 -38.788700 -19.355700 28.694100 24.328600 0.000019 0.000005 0.729863 24.972000 -1.728100 22.291600 -0.000001 0.000005 53.116200 3.478960 31.215900 12.994500 -0.242716 -4.980390 90.495500 -2.257940 -77.618700 -5.348130 -0.000001 -0.000004 -67.806600 0.908774 -9.087820 -24.328900 0.000322 -0.000009 -13.470100 -3.675640 -75.014600 -22.291500 -0.000108 -0.000004 21.447600 5.644390 -14.504100 -2.192480 -6.469440 -0.000000 179.287000 2.187140 -49.076800 39.081100 -0.000007 -0.000012 0.036830 -0.045487 38.994900 40.985400 -0.000006 -0.000013 -4.238770 11.173000 -69.301600 11.754300 -0.000000 0.000003 0.002022 0.047558 -14.647600 -2.192510 6.469440 -0.000001 179.434000 11.171900 179.183000 -39.081100 -0.002282 -0.040193 0.032841 -0.168638 9.923240 -40.985400 0.000008 0.000006 0.832586 -1.134070 -25.538200 -11.754300 -0.000006 -0.000006 0.001412 0.138996 -10.936500
0.000000 0.000000 0.000000 0.000000 0.000000 -0.000000 0.576337 95.085900 -426.663000 90.129600 -0.649931 -22.430900 15.735700 0.000005 -0.000001 125.406000 84.931000 -125.504000 8.984550 -0.406207 -0.000000 0.507264 5.877970 -0.222510 16.377300 -0.000001 -0.000001 -11.638600 -0.850391 2.004580 6.456720 -0.000001 -0.000000 -2.533000 -1.929790 -1.579500 12.994200 -0.242716 4.980390 -90.964500 2.896410 -71.573700 5.348090 -0.000007 -0.000001 -40.713700 -19.493200 26.157600 24.328600 0.000019 0.000005 0.427802 20.794600 -1.204510 22.291600 -0.000001 0.000005 43.040100 3.748240 27.682700 12.994500 -0.242716 -4.980390 90.421500 -1.991440 -78.047500 -5.348130 -0.000001 -0.000004 -69.901600 2.592920 -6.731780 -24.328900 0.000322 -0.000009 -13.740000 -5.285880 -69.353200 -22.291500 -0.000108 -0.000004 18.982700 5.649730 -14.989900 -2.192480 -6.469440 -0.000000 -179.609000 -0.528652 -43.104400 39.081100 -0.000007 -0.000012 0.025726 -0.049375 27.520900 40.985400 -0.000006 -0.000013 -5.532140 13.317700 -72.364400 11.754300 -0.000000 0.000003 0.001984 0.046090 -14.707200 -2.192510 6.469440 -0.000001 -178.461000 6.663160 179.947000 -39.081100 -0.002282 -0.040193 0.055015 -0.165451 17.349500 -40.985400 0.000008 0.000006 -0.388418 1.985030 -15.867300 -11.754300 -0.000006 -0.000006 0.000982 0.149066 -10.528000
